HIERARCHY
ROOT Hips
{
	OFFSET 0.00000 0.00000 0.00000
	CHANNELS 6 Xposition Yposition Zposition Zrotation Yrotation Xrotation 
	JOINT LHipJoint
	{
		OFFSET 0 0 0
		CHANNELS 3 Zrotation Yrotation Xrotation
		JOINT LeftUpLeg
		{
			OFFSET 1.37590 -1.78394 0.89329
			CHANNELS 3 Zrotation Yrotation Xrotation
			JOINT LeftLeg
			{
				OFFSET 2.47928 -6.81178 0.00000
				CHANNELS 3 Zrotation Yrotation Xrotation
				JOINT LeftFoot
				{
					OFFSET 2.63345 -7.23535 0.00000
					CHANNELS 3 Zrotation Yrotation Xrotation
					JOINT LeftToeBase
					{
						OFFSET 0.23938 -0.65768 2.27012
						CHANNELS 3 Zrotation Yrotation Xrotation
						End Site
						{
							OFFSET 0.00000 -0.00000 1.18363
						}
					}
				}
			}
		}
	}
	JOINT RHipJoint
	{
		OFFSET 0 0 0
		CHANNELS 3 Zrotation Yrotation Xrotation
		JOINT RightUpLeg
		{
			OFFSET -1.33617 -1.78394 0.89329
			CHANNELS 3 Zrotation Yrotation Xrotation
			JOINT RightLeg
			{
				OFFSET -2.56922 -7.05888 0.00000
				CHANNELS 3 Zrotation Yrotation Xrotation
				JOINT RightFoot
				{
					OFFSET -2.56568 -7.04915 0.00000
					CHANNELS 3 Zrotation Yrotation Xrotation
					JOINT RightToeBase
					{
						OFFSET -0.27533 -0.75646 2.18105
						CHANNELS 3 Zrotation Yrotation Xrotation
						End Site
						{
							OFFSET -0.00000 -0.00000 1.15233
						}
					}
				}
			}
		}
	}
	JOINT LowerBack
	{
		OFFSET 0 0 0
		CHANNELS 3 Zrotation Yrotation Xrotation
		JOINT Spine
		{
			OFFSET 0.06190 2.15152 -0.00935
			CHANNELS 3 Zrotation Yrotation Xrotation
			JOINT Spine1
			{
				OFFSET 0.06334 2.15332 0.00872
				CHANNELS 3 Zrotation Yrotation Xrotation
				JOINT Neck
				{
					OFFSET 0 0 0
					CHANNELS 3 Zrotation Yrotation Xrotation
					JOINT Neck1
					{
						OFFSET -0.04202 1.66908 0.23524
						CHANNELS 3 Zrotation Yrotation Xrotation
						JOINT Head
						{
							OFFSET 0.07510 1.69357 -0.24440
							CHANNELS 3 Zrotation Yrotation Xrotation
							End Site
							{
								OFFSET 0.02556 1.71719 -0.11000
							}
						}
					}
				}
				JOINT LeftShoulder
				{
					OFFSET 0 0 0
					CHANNELS 3 Zrotation Yrotation Xrotation
					JOINT LeftArm
					{
						OFFSET 3.67168 1.26306 -0.41342
						CHANNELS 3 Zrotation Yrotation Xrotation
						JOINT LeftForeArm
						{
							OFFSET 4.68510 -0.00000 -0.00000
							CHANNELS 3 Zrotation Yrotation Xrotation
							JOINT LeftHand
							{
								OFFSET 3.39626 -0.00000 -0.00000
								CHANNELS 3 Zrotation Yrotation Xrotation
								JOINT LeftFingerBase
								{
									OFFSET 0 0 0
									CHANNELS 3 Zrotation Yrotation Xrotation
									JOINT LeftHandIndex1
									{
										OFFSET 0.48608 -0.00000 -0.00000
										CHANNELS 3 Zrotation Yrotation Xrotation
										End Site
										{
											OFFSET 0.39189 -0.00000 -0.00000
										}
									}
								}
								JOINT LThumb
								{
									OFFSET 0 0 0
									CHANNELS 3 Zrotation Yrotation Xrotation
									End Site
									{
										OFFSET 0.39787 -0.00000 0.39787
									}
								}
							}
						}
					}
				}
				JOINT RightShoulder
				{
					OFFSET 0 0 0
					CHANNELS 3 Zrotation Yrotation Xrotation
					JOINT RightArm
					{
						OFFSET -3.04136 1.42992 -0.76390
						CHANNELS 3 Zrotation Yrotation Xrotation
						JOINT RightForeArm
						{
							OFFSET -5.55576 -0.00000 -0.00000
							CHANNELS 3 Zrotation Yrotation Xrotation
							JOINT RightHand
							{
								OFFSET -3.32774 -0.00000 -0.00000
								CHANNELS 3 Zrotation Yrotation Xrotation
								JOINT RightFingerBase
								{
									OFFSET 0 0 0
									CHANNELS 3 Zrotation Yrotation Xrotation
									JOINT RightHandIndex1
									{
										OFFSET -0.50763 -0.00000 -0.00000
										CHANNELS 3 Zrotation Yrotation Xrotation
										End Site
										{
											OFFSET -0.40926 -0.00000 -0.00000
										}
									}
								}
								JOINT RThumb
								{
									OFFSET 0 0 0
									CHANNELS 3 Zrotation Yrotation Xrotation
									End Site
									{
										OFFSET -0.41551 -0.00000 0.41551
									}
								}
							}
						}
					}
				}
			}
		}
	}
}
MOTION
Frames: 12
Frame Time: 0.0465116
0.00 0.00 0.00 0 0 0 0 0 0 -21 0 0 0 0 0 0 0 0 0 0 0 0 0 0 21 0 0 0 0 0 0 0 0 0 0 0 0 0 0 0 0 0 0 0 0 0 0 -16 0 0 21 0 0 11 0 0 0 -8 0 0 0 0 0 0 0 0 0 0 0 0 0 0 0 0 0 0 0 0 8 0 0 0 0 0 0 0 0 0 0 0 0 0 0 0 0 0
0.00 0.00 0.00 -31.6820 -75.9298 35.4207 0.0000 0.0000 0.0000 -4.4200 -9.7699 -12.7415 9.3961 17.0560 57.4501 0.2716 0.0841 9.8149 0.2249 -3.0528 -8.4257 0.0000 0.0000 0.0000 29.0687 2.8130 -14.3537 -0.8189 -5.7741 16.1303 0.2508 -10.4170 -9.7035 -1.2402 -7.0617 19.8983 6.4659 2.0599 -0.1159 1.8508 2.8175 -2.4998 -1.7544 1.2717 -2.2984 -11.1683 -8.0137 -10.8383 2.7919 -9.3796 10.2230 1.8584 -4.8413 5.5170 0.0000 -0.0000 0.0000 -86.7868 3.4422 -4.7221 9.3328 -15.6892 -1.2886 -0.0000 -0.0000 40.2830 8.1302 19.7933 2.7696 -7.1250 0.0000 -0.0000 -19.6912 48.9179 -1.9726 0.0000 -0.0000 0.0000 49.7340 53.7908 15.5997 -67.3806 57.9757 -40.5442 0.0000 0.0000 11.1380 -37.4034 -19.3175 14.1952 7.1250 -0.0000 -0.0000 -9.6748 -53.5319 2.0448
0.00 0.00 0.00 -40.2016 -76.3913 43.9160 0.0000 0.0000 0.0000 -3.2559 -11.1031 -24.2981 8.1106 16.2000 52.9599 0.0547 -3.9072 -4.6457 0.5286 -4.6593 -12.9393 0.0000 0.0000 0.0000 32.8266 1.1437 -6.7371 -0.5083 -4.5703 12.6869 -0.0787 -7.6064 -12.4027 -1.1621 -6.8436 19.2529 7.6712 4.1457 -0.2087 2.1343 5.6110 -2.8770 -2.1394 2.6232 -2.3473 -12.7367 -9.3604 -9.2067 4.1625 -11.3852 11.1065 2.3575 -5.8284 5.8382 -0.0000 0.0000 0.0000 -88.0366 8.5412 -1.8077 11.2459 -18.6642 -1.8539 -0.0000 -0.0000 31.4820 8.7461 18.8063 2.8392 -7.1250 0.0000 -0.0000 -18.7072 48.0702 -1.4650 -0.0000 0.0000 0.0000 33.1569 68.3025 -13.7403 -11.8235 19.5393 -2.0429 0.0000 0.0000 11.6470 -16.2891 -24.9205 7.0193 7.1250 -0.0000 -0.0000 14.2146 -55.2412 -3.6278
0.00 0.00 0.00 -38.3995 -75.3364 42.8732 0.0000 0.0000 0.0000 -3.2344 -14.0480 -26.9920 4.3579 12.6220 37.9694 0.2180 -1.1571 -8.4872 0.6681 -5.2270 -14.5571 0.0000 0.0000 0.0000 34.1661 -0.3354 -3.9034 -0.4565 -4.3342 12.0188 -0.2629 -7.2963 -14.9883 -0.8459 -5.8663 16.3971 8.0701 4.4834 -0.7180 1.4037 6.0161 -3.0226 -3.0644 2.8206 -2.0610 -13.6609 -10.3326 -8.6503 6.8831 -12.9982 10.5105 3.1962 -6.4749 5.9373 -0.0000 -0.0000 0.0000 -87.8703 9.0357 -3.9869 11.8893 -19.6384 -2.0649 -0.0000 -0.0000 29.8635 10.0255 19.5192 3.3804 -7.1250 0.0000 -0.0000 -17.8209 48.9323 -1.7799 -0.0000 -0.0000 0.0000 38.3331 64.8299 -13.5812 -9.5034 15.9590 -1.3352 0.0000 0.0000 16.4616 -12.1160 -32.2430 6.5336 7.1250 -0.0000 -0.0000 23.5472 -61.2541 -9.6209
0.00 0.00 0.00 -38.7820 -75.2020 44.1502 0.0000 0.0000 0.0000 -3.0458 -14.6186 -26.4162 1.5072 7.7537 21.9684 0.0805 2.1366 -6.5923 0.6743 -5.2509 -14.6255 0.0000 0.0000 0.0000 34.9237 -1.1457 -1.9678 -0.4543 -4.3238 11.9895 -0.4482 -6.5434 -16.7178 -0.5945 -4.9363 13.7269 7.4772 4.8449 -1.8093 1.0493 6.3864 -2.9993 -2.9968 3.0427 -1.4041 -14.0343 -10.7323 -7.7204 8.3677 -13.7478 9.2131 3.6945 -6.7787 5.5855 0.0000 0.0000 0.0000 -88.2908 8.6623 -6.8042 11.8521 -19.5824 -2.0524 -0.0000 -0.0000 28.6927 11.1865 20.4025 3.9438 -7.1250 0.0000 -0.0000 -17.1068 49.9539 -2.1446 0.0000 0.0000 0.0000 48.3232 54.9468 5.5490 -16.0097 25.5337 -3.6501 0.0000 0.0000 10.5612 -10.7897 -28.6066 5.2136 7.1250 -0.0000 -0.0000 22.0359 -57.6288 -7.0405
0.00 0.00 0.00 -41.0731 -75.9708 48.2364 0.0000 0.0000 0.0000 -2.7181 -15.0954 -26.5832 0.2663 3.3195 9.1697 0.0515 2.2799 -5.7498 0.8966 -6.0351 -16.8864 0.0000 0.0000 0.0000 35.1213 -1.3477 -0.2029 -0.6175 -5.0289 13.9910 -0.7314 -5.0612 -18.7750 -0.1351 -2.3687 6.5256 6.7913 4.9519 -3.0186 0.4743 6.4398 -3.4232 -3.1209 3.0752 -1.1679 -14.1408 -10.6350 -7.9518 9.0292 -13.6345 8.9297 3.9225 -6.6832 5.5785 -0.0000 0.0000 0.0000 -89.0072 9.4611 -8.8474 11.6264 -19.2420 -1.9774 -0.0000 -0.0000 28.6635 11.2200 20.3632 3.9486 -7.1250 0.0000 -0.0000 -17.0585 49.9211 -2.1241 -0.0000 0.0000 0.0000 61.1591 36.2907 27.0686 -28.5406 39.6092 -10.4666 0.0000 0.0000 8.4549 -17.9262 -22.8731 7.1668 7.1250 -0.0000 -0.0000 11.6098 -53.5183 -2.4579
0.00 0.00 0.00 -38.4988 -79.2825 45.5366 0.0000 0.0000 0.0000 -7.9718 -15.5739 -24.6393 1.0264 6.4447 18.0802 -0.0179 2.6758 0.3360 0.0088 -0.6074 -1.6692 0.0000 0.0000 0.0000 31.3407 -0.4892 -0.1386 -2.4588 -9.7626 28.2112 -0.5148 -4.8419 -16.1915 -0.4464 4.2865 -11.8841 3.6697 4.2633 -2.8865 -0.2420 5.5854 -2.9334 -2.1666 2.7191 -1.0306 -13.6202 -10.2257 -7.8700 9.1350 -13.1071 8.0639 3.9603 -6.4039 5.2070 0.0000 0.0000 0.0000 -89.7763 9.0656 -12.0602 10.3261 -17.2480 -1.5702 -0.0000 -0.0000 35.0780 9.1620 19.2020 3.0365 -7.1250 0.0000 -0.0000 -18.4880 48.5053 -1.6508 0.0000 0.0000 0.0000 78.6373 8.7975 38.6351 -22.9439 34.0274 -7.1069 0.0000 0.0000 8.7625 -13.1757 -22.3033 5.0770 7.1250 -0.0000 -0.0000 16.0454 -52.1135 -2.8707
0.00 0.00 0.00 -33.3944 -80.6658 39.7208 0.0000 0.0000 0.0000 -11.5166 -13.5618 -20.0144 1.0807 6.6076 18.5579 0.0055 0.2466 -1.5165 0.0208 0.9303 2.5571 0.0000 0.0000 0.0000 27.2407 -1.4470 -6.9411 -5.4407 -13.8635 42.6934 0.1877 -7.6808 -2.1615 -0.1658 2.6232 -7.2314 2.1099 3.2723 -2.3318 -0.1123 4.3096 -2.6066 -1.2336 2.1102 -1.2056 -13.3340 -9.8048 -8.4818 8.4729 -12.4509 8.7338 3.7470 -6.0957 5.3792 -0.0000 -0.0000 0.0000 -90.2064 8.8362 -11.6680 10.3188 -17.2366 -1.5681 -0.0000 -0.0000 34.7386 8.3003 18.7808 2.6891 -7.1250 0.0000 -0.0000 -19.1047 47.9844 -1.4566 -0.0000 -0.0000 0.0000 87.7706 2.6249 12.0281 -8.8487 14.9190 -1.1609 0.0000 0.0000 26.1028 -13.1472 -27.4444 6.1444 7.1250 -0.0000 -0.0000 18.8562 -57.0403 -5.7008
0.00 0.00 0.00 -11.0407 -82.3972 16.7441 0.0000 0.0000 0.0000 -17.5952 -11.9945 -14.5198 1.0209 6.4280 18.0314 0.0762 -1.4745 -4.9088 0.0065 0.5197 1.4281 0.0000 0.0000 0.0000 20.6903 -1.9638 -16.7759 -9.8191 -17.3069 58.8820 0.2014 -15.4660 8.5391 -0.0556 -1.5221 4.1866 -1.4600 1.8019 -0.9756 0.0228 2.3895 -1.9745 0.8301 1.2105 -1.5371 -12.6991 -9.1414 -9.9367 7.4777 -11.3123 8.6530 3.4076 -5.5365 5.3730 -0.0000 0.0000 0.0000 -90.0979 7.8664 -6.6211 11.3255 -18.7854 -1.8794 -0.0000 -0.0000 32.4354 7.4101 18.0974 2.3135 -7.1250 0.0000 -0.0000 -19.6350 47.2173 -1.1157 -0.0000 0.0000 0.0000 90.3173 -5.5182 -33.2859 -4.9014 8.4180 -0.3609 0.0000 0.0000 66.0169 -13.4204 -37.6304 8.2889 7.1250 -0.0000 -0.0000 27.9434 -66.3551 -14.8841
0.00 0.00 0.00 -6.3342 -82.4821 11.7089 0.0000 0.0000 0.0000 -19.5995 -10.8510 -9.1389 0.9061 6.0659 16.9759 0.2150 -1.9962 -8.2912 0.0000 0.0000 0.0001 0.0000 0.0000 0.0000 17.8298 -1.8086 -27.3749 -12.5978 -18.6321 67.8716 1.0428 -18.2221 -2.2865 -0.2580 -3.2679 9.0254 -1.3544 -0.0797 0.0054 0.9886 -0.1126 -1.3531 1.7736 -0.0371 -1.3844 -11.0163 -7.9949 -11.1037 6.5744 -9.7793 8.9222 2.9881 -4.7642 5.3632 -0.0000 -0.0000 0.0000 -88.4370 7.0662 -0.5786 13.8363 -22.5003 -2.7652 -0.0000 -0.0000 27.3206 9.9210 19.1807 3.2889 -7.1250 0.0000 -0.0000 -17.7786 48.5930 -1.6229 -0.0000 -0.0000 0.0000 86.9143 -17.5288 -14.4775 -6.1812 10.5641 -0.5720 0.0000 0.0000 44.6956 9.7802 -19.0430 -3.2190 7.1250 -0.0000 -0.0000 34.9804 -45.8190 -0.8076
0.00 0.00 0.00 13.7531 -85.3762 -8.0728 0.0000 0.0000 0.0000 -22.4387 -6.7787 -2.5454 0.7223 5.4308 15.1416 0.4988 -2.6948 -12.6885 0.0282 -1.0841 -2.9803 0.0000 0.0000 0.0000 12.1356 2.9834 -37.9362 -8.2913 -16.3294 53.6052 0.7427 -16.8463 -14.4030 -0.1610 -2.5851 7.1257 -2.4389 -2.0844 1.4834 1.9676 -2.8126 -0.8403 3.4616 -1.3745 -1.4777 -8.4713 -6.2266 -12.1566 4.8522 -7.5334 9.8937 2.2379 -3.6780 5.4748 0.0000 -0.0000 0.0000 -82.8930 4.3363 2.6427 16.7285 -26.4984 -3.9654 -0.0000 -0.0000 22.0061 13.8417 21.3692 5.1303 -7.1250 0.0000 -0.0000 -14.9887 51.3144 -2.3764 0.0000 -0.0000 0.0000 82.0856 -22.1252 -12.1993 -8.6976 14.6771 -1.1223 0.0000 0.0000 26.9000 -0.7157 -24.8504 0.3008 7.1250 -0.0000 -0.0000 29.2465 -52.3432 -5.6835
0.00 0.00 0.00 35.1927 -86.8945 -28.2228 0.0000 0.0000 0.0000 -22.9656 -5.2914 -0.2954 0.7035 5.3609 14.9410 0.6662 -2.8760 -14.7089 0.1659 -2.6239 -7.2333 0.0000 0.0000 0.0000 10.3464 5.0495 -39.0059 -3.1400 -10.9184 32.0051 0.7669 -16.0239 -11.1460 -0.1851 -2.7709 7.6417 -3.4129 -2.5277 1.5344 2.5932 -3.4250 -1.0869 4.6788 -1.6635 -1.6197 -8.0253 -6.0439 -11.9478 4.2719 -7.2995 9.6309 2.0171 -3.5881 5.3031 0.0000 0.0000 0.0000 -80.1506 2.3097 3.8145 18.1796 -28.3865 -4.6343 -0.0000 -0.0000 21.7481 14.4909 22.2550 5.5904 -7.1250 0.0000 -0.0000 -14.7435 52.2919 -2.6942 0.0000 0.0000 0.0000 81.4969 -19.0766 -13.9900 -10.6548 17.7573 -1.6691 0.0000 0.0000 19.4898 -13.4203 -31.1914 7.0446 7.1250 -0.0000 -0.0000 21.2728 -60.6072 -8.3125
